<svg xmlns="http://www.w3.org/2000/svg" viewBox="0 0 24 24"><style>path{fill:#000;fill-opacity:.95}@media(prefers-color-scheme:dark){path{fill:#fff}}</style><path d="M18.31 12c.31-.265.577-.51.817-.74 1.97-1.9 2.767-3.553 2.189-4.54-.578-.983-2.438-1.134-5.1-.41l-.218.06.181.133a7.1 7.1 0 0 1 1.903 2.127c.286.483-.098 1.337-1.048 2.347a30 30 0 0 0-3.206-2.087 31 31 0 0 0-3.446-1.68c.418-1.313.977-2.064 1.555-2.064.148 0 1.46-.018 2.819.555l.209.087-.055-.214c-.692-2.624-1.753-4.13-2.911-4.13-1.16 0-2.22 1.506-2.912 4.13-.083.317-.163.667-.242 1.062-.388-.13-.735-.235-1.061-.326-2.662-.724-4.522-.576-5.1.41-.578.984.218 2.64 2.189 4.54l.163.158.027-.22a7.1 7.1 0 0 1 .926-2.682c.286-.483 1.23-.586 2.597-.284A29 29 0 0 0 8.346 12c0 1.285.08 2.552.24 3.768-1.368.302-2.311.2-2.6-.29a7 7 0 0 1-.92-2.672l-.027-.22-.163.156c-1.974 1.898-2.77 3.55-2.192 4.537.578.984 2.438 1.135 5.1.41.323-.087.67-.192 1.06-.325.08.398.16.748.243 1.062.692 2.624 1.753 4.13 2.912 4.13 1.158 0 2.219-1.506 2.91-4.13l.056-.214-.21.087a7.4 7.4 0 0 1-2.827.555c-.569 0-1.132-.751-1.55-2.063a31 31 0 0 0 3.446-1.68 30 30 0 0 0 3.207-2.088c.95 1.01 1.33 1.864 1.045 2.353a7.2 7.2 0 0 1-1.9 2.12l-.181.133.218.06c2.662.725 4.522.577 5.1-.41.578-.983-.218-2.64-2.189-4.54q-.354-.343-.818-.739zm-2.374 0a20 20 0 0 1-2.81 1.919 19.6 19.6 0 0 1-3.095 1.427A19 19 0 0 1 9.742 12c0-1.168.098-2.32.29-3.346.998.353 2.068.845 3.095 1.427A19.5 19.5 0 0 1 15.937 12"/></svg>
