<svg xmlns="http://www.w3.org/2000/svg" width="108" height="40" viewBox="0 0 105.853 38.3429" fill="none" aria-hidden="true">
  <path d="M0 27.8519V10.491H7.29343V22.505H21.5572V27.8519H0Z" fill="#fff" fill-opacity="0.95"/>
  <path d="M75.0095 27.8519L72.1184 23.135H65.5587V27.8519H58.2653V10.491H74.9383C77.7583 10.491 79.7513 10.9895 80.9176 11.9866C82.0839 12.9836 82.6698 14.4792 82.6698 16.4733C82.6698 18.4674 82.3522 18.9386 81.7116 19.8315C81.071 20.7245 80.2496 21.3381 79.2421 21.6777L83.0586 27.8519H75.0095ZM72.7043 18.6811C73.3669 18.6811 73.8432 18.566 74.128 18.3305C74.4127 18.0949 74.5551 17.7279 74.5551 17.2239C74.5551 16.7199 74.4182 16.3254 74.1444 16.0789C73.8706 15.8378 73.3888 15.7118 72.7098 15.7118H65.5642V18.6811H72.7098H72.7043Z" fill="#fff" fill-opacity="0.95"/>
  <path d="M91.3924 17.1033H105.076V21.1135H91.3924V23.4965H105.853V27.8519H84.0989V10.491H105.705V14.9175H91.3924V17.1033Z" fill="#fff" fill-opacity="0.95"/>
  <path d="M51.1526 19.1687C51.7056 18.6866 52.182 18.2428 52.6091 17.8265C56.1189 14.3751 57.5371 11.373 56.5077 9.58159C55.4783 7.79566 52.1655 7.52174 47.4237 8.83654L47.035 8.94611L47.358 9.18715C49.4771 10.7649 50.6214 12.8083 50.7474 13.0494C51.2566 13.9259 50.5722 15.4763 48.8802 17.3115C47.1116 15.9638 45.1952 14.6874 43.1692 13.5205C41.1487 12.3536 39.0845 11.3292 37.0311 10.4691C37.7758 8.08601 38.7724 6.72191 39.8018 6.72191C40.0646 6.72191 42.4026 6.68904 44.8228 7.72992L45.1952 7.88879L45.0966 7.49983C43.8646 2.73368 41.9756 0 39.9113 0C37.847 0 35.9579 2.73368 34.7259 7.49983C34.5781 8.07505 34.4357 8.71054 34.2934 9.4282C33.6034 9.19263 32.9847 9.00089 32.4043 8.83654C27.6625 7.52174 24.3498 7.79018 23.3204 9.58159C22.291 11.3675 23.7091 14.3751 27.2189 17.8265L27.5092 18.1113L27.5584 17.7114C27.8651 15.0928 29.0642 13.0768 29.2066 12.8412C29.7158 11.9647 31.3968 11.7784 33.8334 12.3262C33.5487 14.534 33.4063 16.8349 33.4063 19.1687C33.4063 21.5024 33.5487 23.8033 33.8334 26.0111C31.3968 26.5589 29.7158 26.3727 29.2011 25.4852C29.0642 25.266 27.8705 23.2445 27.5639 20.6314L27.5146 20.2315L27.2244 20.5163C23.7146 23.9677 22.2964 26.9699 23.3258 28.7613C24.3552 30.5472 27.6679 30.8211 32.4098 29.5063C32.9847 29.3475 33.6034 29.1557 34.2988 28.9147C34.4412 29.6378 34.5836 30.2733 34.7314 30.843C35.9634 35.6092 37.8525 38.3429 39.9167 38.3429C41.981 38.3429 43.8701 35.6092 45.1021 30.843L45.2006 30.4541L44.8283 30.6129C42.4026 31.6593 40.0646 31.6264 39.7908 31.621C38.7778 31.621 37.7758 30.2569 37.0311 27.8738C39.0845 27.0137 41.1487 25.9892 43.1692 24.8223C45.1897 23.6554 47.1116 22.379 48.8802 21.0313C50.5722 22.8665 51.2511 24.4169 50.7419 25.3044C50.616 25.5345 49.4716 27.5725 47.358 29.1557L47.035 29.3968L47.4237 29.5063C52.1655 30.8211 55.4783 30.5527 56.5077 28.7613C57.5371 26.9753 56.1189 23.9677 52.6091 20.5163C52.1874 20.1 51.7056 19.6562 51.1526 19.1741V19.1687ZM46.92 19.1687C45.4744 20.3903 43.7496 21.5901 41.9153 22.6529C40.081 23.7102 38.181 24.6086 36.4014 25.2441C36.0674 23.3815 35.8867 21.2888 35.8867 19.1687C35.8867 17.0486 36.062 14.9558 36.4014 13.0932C38.181 13.7342 40.0865 14.6271 41.9153 15.6844C43.7496 16.7418 45.4744 17.947 46.92 19.1687Z" fill="#fff" fill-opacity="0.95"/>
</svg>
